<svg version="1.1" id="Layer_1" xmlns="http://www.w3.org/2000/svg" xmlns:xlink="http://www.w3.org/1999/xlink" x="0px" y="0px"
	 width="100%" viewBox="0 0 352 352" enable-background="new 0 0 352 352" xml:space="preserve">
<path fill="#000000" opacity="1.000000" stroke="none" 
	d="
M319.220337,297.446777 
	C279.784027,298.485107 240.799179,297.615143 201.820435,298.010376 
	C197.455521,298.054657 195.701736,296.262146 195.575104,291.723938 
	C195.138733,276.085510 194.261597,260.459839 193.701340,244.824005 
	C193.568619,241.119904 192.235001,239.247879 188.347214,239.339706 
	C183.518738,239.453735 178.682266,239.447678 173.854630,239.307556 
	C170.119522,239.199142 168.412384,240.682312 168.275497,244.546524 
	C167.715683,260.349701 166.815811,276.142609 166.421799,291.948761 
	C166.312653,296.327271 164.729050,297.911621 160.594635,297.889862 
	C149.099564,297.829437 137.603531,297.952454 126.108505,297.889313 
	C97.791115,297.733795 69.471916,298.246307 41.155270,297.460083 
	C27.026852,297.067780 21.431490,287.806641 28.299744,275.249542 
	C47.479450,240.183685 66.817032,205.204208 86.064720,170.175491 
	C103.547539,138.358658 121.023010,106.537712 138.432220,74.680595 
	C141.891998,68.349548 146.552933,64.686104 154.203888,64.460388 
	C161.509842,64.244858 168.739761,63.928448 176.301559,65.095291 
	C176.301559,68.885490 176.375839,72.351318 176.281158,75.812531 
	C176.181885,79.442268 178.477448,79.712166 181.235992,79.723885 
	C183.953491,79.735420 185.832382,79.081619 185.677521,75.848656 
	C185.581955,73.853882 185.931549,71.803009 185.595322,69.861465 
	C184.785980,65.187592 187.222321,64.057999 191.191681,64.107887 
	C196.188583,64.170700 201.191299,64.215355 206.184250,64.049683 
	C213.969727,63.791348 219.367249,66.970444 223.153824,73.945900 
	C239.838776,104.682106 256.759888,135.290131 273.600952,165.941574 
	C293.248077,201.700211 312.900848,237.455765 332.552032,273.212189 
	C332.712463,273.504028 332.877716,273.793793 333.053558,274.076538 
	C340.496246,286.047089 335.552673,298.908234 319.220337,297.446777 
M171.287354,183.805145 
	C170.640549,195.913757 169.913589,208.018799 169.376282,220.132263 
	C169.041153,227.687653 169.169662,227.694382 176.510590,227.699509 
	C179.503723,227.701599 182.496933,227.712296 185.489960,227.694336 
	C192.231171,227.653854 192.966599,226.796448 192.563370,220.213135 
	C191.913330,209.600388 191.249542,198.986130 190.809845,188.363464 
	C190.306061,176.192352 190.407578,176.369324 178.075363,176.236771 
	C173.110245,176.183411 170.903748,177.974152 171.287354,183.805145 
M174.502747,167.212677 
	C177.477951,167.365250 180.465897,167.394135 183.425461,167.698776 
	C188.108353,168.180832 190.077850,166.451523 189.724533,161.528107 
	C188.904541,150.101776 188.193832,138.657578 187.886063,127.208611 
	C187.724289,121.191277 183.530884,121.900452 179.909103,121.580956 
	C176.216446,121.255203 174.076187,122.680305 173.940475,126.926277 
	C173.574615,138.374115 172.859344,149.810486 172.344620,161.254196 
	C172.257111,163.199814 171.907242,165.309113 174.502747,167.212677 
M186.788269,102.472160 
	C186.684311,98.316345 186.696686,94.153381 186.441940,90.006828 
	C186.211655,86.258202 183.934677,85.107704 180.316498,85.214134 
	C176.597168,85.323540 175.350861,87.089470 175.336578,90.504776 
	C175.314331,95.826965 175.130478,101.148361 175.028015,106.470352 
	C174.918411,112.162735 175.758041,112.820312 181.089020,113.117836 
	C186.224564,113.404457 187.521088,110.901382 186.934616,106.436249 
	C186.805206,105.451057 186.849564,104.443031 186.788269,102.472160 
z"/>
</svg>